<svg width="854" height="853" viewBox="0 0 854 853" fill="none" xmlns="http://www.w3.org/2000/svg">
<path fill-rule="evenodd" clip-rule="evenodd" d="M410.514 99.0006C409.235 99.0115 407.918 99.1664 406.516 99.4289C399.684 100.709 392.002 109.337 361.523 149.969C329.129 193.155 321.866 202.061 288.707 239.266C235.128 299.381 195.11 336.937 131.582 386.716C118.016 397.345 103.353 409.398 98.9994 413.5C91.2735 420.778 86.2463 428.575 86.2463 433.276C86.2463 438.84 93.0907 446.369 108.773 458.056C117.412 464.494 139.041 480.586 156.835 493.817C247.114 560.942 339.622 654.144 396.322 735.099C404.463 746.723 409.487 751.965 413.741 753.272C418.59 754.762 428.188 753.852 431.672 751.573C433.196 750.575 450.762 727.956 470.708 701.306C512.283 645.759 519.888 636.418 548.162 606.181C597.796 553.102 669.935 488.682 726.624 446.816C743.696 434.208 746.246 431.082 746.246 422.891C746.226 410.961 741.56 405.94 710.958 384.908C646.117 340.345 611.796 311.303 549.781 248.523C500.917 199.056 479.31 174.683 446.84 132.401C426.493 105.904 419.464 98.9244 410.514 99.0006V99.0006ZM411.342 182.405C412.694 182.418 414.133 182.47 415.684 182.559C424.765 183.076 427.229 183.736 435.845 187.956C459.93 199.751 512.337 244.644 568.631 301.704C619.199 352.961 652.33 393.073 659.361 411.554C662.44 419.646 662.192 430.257 658.726 438.672C651.305 456.694 623.575 493.797 588.698 532.372C570.139 552.899 524.595 597.828 502.285 617.619C467.16 648.779 446.772 664.242 435.012 668.636C424.28 672.646 413.591 671.409 400.367 664.625C372.37 650.264 284.714 575.896 241.064 529.471C208.311 494.637 177.665 456.196 173.17 444.311C166.085 425.578 176.305 404.306 214.385 358.524C262.699 300.44 349.682 215.935 387.213 190.622C396.648 184.258 401.874 182.318 411.342 182.405V182.405ZM416.381 198.938C415.551 198.952 414.655 199.019 413.626 199.121C410.104 199.47 404.32 201.321 400.097 203.45C378.519 214.331 333.317 254.147 283.798 305.893C226.66 365.6 193.401 405.345 189.831 418.181C188.02 424.692 188.409 434.72 190.731 441.359C201.355 471.743 299.167 571.267 372.739 626.552C393.322 642.018 406.809 651.112 412.131 653.109C418.161 655.373 428.875 654.24 435.903 650.599C454.81 640.802 500.739 600.509 548.016 552.241C600.299 498.861 638.427 451.949 642.875 435.529C644.953 427.854 643.591 415.335 639.85 407.725C636.731 401.378 631.11 393.105 623.114 383.043L623.67 383.824L617.112 384.222C612.755 384.487 610.374 384.151 610.018 383.222C609.163 380.991 610.759 379.386 613.834 379.386C615.397 379.386 616.677 378.862 616.677 378.222C616.677 376.838 617.533 376.738 618.765 377.687C606.777 363.164 590.403 345.352 569.915 324.567C570.765 328.369 562.39 331.026 556.152 327.874H556.134C551.888 325.729 550.324 321.628 550.305 312.59V304.998C535.045 290.018 520.255 276.061 506.401 263.521C506.938 264.275 507.321 265.066 507.416 265.724C507.638 267.255 508.889 268.466 510.682 268.886C512.281 269.26 513.76 270.459 513.971 271.551C514.305 273.29 513.182 273.535 504.869 273.535C495.7 273.535 495.397 273.449 495.756 270.918C496.001 269.2 496.928 268.3 498.457 268.3C500.306 268.3 500.861 267.404 501.147 263.956C501.47 260.078 501.553 259.698 503.587 260.983C496.139 254.283 488.972 248.005 482.173 242.224C482.535 242.598 482.913 242.999 483.318 243.447L487.669 248.256L487.152 258.084C486.818 264.421 486.096 268.245 485.118 268.849C484.244 269.388 483.987 270.411 484.512 271.259C485.073 272.166 484.953 272.442 484.201 271.977C483.528 271.561 481.482 271.999 479.654 272.952C475.914 274.9 475.03 274.967 471.541 273.559C466.138 271.379 464.1 266.889 464.1 257.169C464.1 252.179 464.708 246.622 465.452 244.821C466.196 243.02 466.727 241.173 466.631 240.717C466.534 240.26 467.184 240.165 468.073 240.505C468.961 240.845 470.034 240.566 470.457 239.882C470.88 239.199 472.968 238.639 475.098 238.639C476.67 238.639 477.89 238.909 479.17 239.683C469.002 231.122 459.698 223.717 451.527 217.702H444.371C438.114 217.702 437.192 217.427 437.527 215.666C438.023 213.049 442.86 212.494 446.617 214.164C439.828 209.369 433.947 205.672 429.191 203.268C428.831 203.086 428.548 202.95 428.212 202.782C430.256 205.06 428.363 213.704 425.147 215.808C420.913 218.579 417.277 218.98 413.1 217.139C407.208 214.541 403.25 202.668 407.707 200.96C411.108 199.656 411.689 200.231 411.689 204.906C411.689 209.744 414.732 214.212 418.028 214.212C420.288 214.212 423.161 209.923 424.041 205.238C424.517 202.704 424.885 201.62 425.724 201.564C421.441 199.522 419.283 198.89 416.381 198.938H416.381ZM425.725 201.564C426.475 201.921 427.313 202.332 428.212 202.782C428.103 202.66 427.987 202.553 427.855 202.47C426.895 201.862 426.225 201.53 425.725 201.564V201.564ZM446.617 214.164C448.208 215.287 449.838 216.458 451.527 217.702H451.602L448.546 215.3C447.963 214.843 447.306 214.47 446.617 214.164H446.617ZM479.17 239.683C480.164 240.52 481.164 241.365 482.174 242.224C481.041 241.057 480.088 240.238 479.17 239.683ZM503.589 260.983C504.523 261.823 505.459 262.668 506.401 263.521C505.826 262.712 505.072 261.945 504.283 261.429C504.021 261.257 503.804 261.119 503.589 260.983V260.983ZM550.305 304.998C551.948 306.612 553.611 308.27 555.264 309.906C554.816 308.963 554.161 308.154 553.217 307.269L550.305 304.537V304.998ZM555.264 309.906C555.915 311.275 556.129 312.928 556.129 315.53C556.129 323.509 561.297 327.531 565.787 323.047C566.426 322.408 566.937 322.077 567.416 322.035C565.129 319.726 562.815 317.397 560.429 315.016C558.698 313.289 556.986 311.61 555.264 309.906V309.906ZM567.416 322.035C568.259 322.886 569.086 323.725 569.915 324.567C569.781 323.966 569.424 323.337 568.783 322.697C568.302 322.216 567.873 321.995 567.416 322.035V322.035ZM618.765 377.687C620.28 379.521 621.74 381.314 623.114 383.043L621.258 380.442C620.362 379.185 619.498 378.25 618.765 377.687V377.687ZM390.946 210.318C391.484 210.349 391.731 210.845 392.064 211.744C392.656 213.343 393.671 213.771 395.874 213.351C398.336 212.881 398.876 213.221 398.876 215.24C398.876 217.547 398.276 217.702 389.326 217.702C383.915 217.702 380.254 217.268 380.881 216.702C381.49 216.152 384.074 214.32 386.623 212.633C389.081 211.005 390.254 210.278 390.946 210.318ZM417.666 238.649C420.15 238.661 422.733 239.565 425.083 241.442C428.521 244.188 428.577 244.409 428.577 255.212C428.577 267.744 427.142 271.63 421.83 273.479C417.81 274.879 417.887 274.88 414.018 273.404C408.973 271.48 406.537 266.786 406.042 258.04C405.716 252.247 406.135 248.892 407.592 245.663C409.656 241.092 413.525 238.631 417.666 238.65V238.649ZM447.676 239.274C447.893 239.255 448.063 239.296 448.172 239.404C448.605 239.837 448.959 246.646 448.959 254.536V268.883H452.933C456.053 268.883 456.843 269.32 456.61 270.918C456.362 272.636 454.814 273.006 446.725 273.293C437.315 273.626 437.144 273.583 437.516 270.967C437.823 268.812 438.508 268.373 441.097 268.675L444.3 269.049V258.497V247.945H440.721C437.948 247.945 437.228 247.49 437.531 245.923C437.744 244.811 438.964 243.712 440.238 243.481C441.512 243.25 443.64 242.061 444.969 240.839C445.965 239.923 447.026 239.331 447.676 239.274V239.274ZM361.749 239.803C363.771 239.803 363.935 240.895 363.935 254.343V268.882H366.847C368.982 268.882 369.76 269.503 369.76 271.209C369.76 273.342 368.982 273.535 360.441 273.535C351.9 273.535 351.124 273.342 351.124 271.209C351.124 269.4 351.9 268.882 354.618 268.882H358.112V258.413V247.945H354.618C351.9 247.945 351.124 247.428 351.124 245.619C351.124 243.441 352.221 242.803 355.336 243.17C356.051 243.254 357.295 242.531 358.1 241.563C358.904 240.595 360.546 239.803 361.749 239.803ZM390.284 239.803C391.561 239.803 391.888 242.769 391.888 254.343V268.882H395.382C398.1 268.882 398.876 269.4 398.876 271.209C398.876 273.342 398.1 273.535 389.559 273.535C381.018 273.535 380.242 273.342 380.242 271.209C380.242 269.4 381.018 268.882 383.736 268.882H387.23V258.413V247.945H383.65C380.87 247.945 380.157 247.491 380.459 245.909C380.672 244.79 381.983 243.711 383.371 243.513C384.76 243.314 386.523 242.399 387.288 241.478C388.053 240.557 389.402 239.803 390.284 239.803V239.803ZM475.344 243.38C473.554 243.265 471.856 244.187 471.09 246.199C469.564 250.208 469.59 263.76 471.128 266.633C472.389 268.986 476.342 269.574 479.115 267.82C481.416 266.365 482.185 250.637 480.143 246.782C479.013 244.648 477.131 243.496 475.341 243.38H475.344ZM417.889 243.4C413.421 243.204 411.688 246.822 411.706 255.977C411.706 260.836 412.109 265.387 412.58 266.091C414.48 268.932 420.614 269.059 422.342 266.293C426.219 260.084 423.766 244.203 418.819 243.49C418.497 243.443 418.186 243.414 417.889 243.4V243.4ZM343.277 248.527L342.73 258.199C342.262 266.476 341.777 268.271 339.374 270.633C336.388 273.567 332.355 274.751 328.21 273.91C326.817 273.628 324.871 272.167 323.885 270.665C322.332 268.297 322.316 267.748 323.765 266.548C325.08 265.457 325.833 265.559 327.299 267.023C328.323 268.046 330.446 268.882 332.015 268.882C335.301 268.882 336.654 266.361 337.711 258.257C338.145 254.935 339.348 252.034 340.846 250.697L343.277 248.527V248.527ZM476.191 294.266C477.568 294.378 478.105 298.903 478.333 309.304L478.659 324.135L482.146 324.177C484.411 324.204 485.759 324.88 485.996 326.105C486.493 328.682 485.794 328.837 475.381 328.447C467.527 328.152 466.332 327.833 466.667 326.119C466.943 324.707 467.974 324.243 470.237 324.509L473.417 324.883V314.408V303.933L470.215 303.565C466.298 303.115 465.885 299.868 469.677 299.331C471.143 299.123 472.972 297.944 473.742 296.712C474.765 295.076 475.566 294.216 476.191 294.266V294.266ZM448.156 294.402C450.255 294.41 452.14 294.706 453.035 295.363C458.576 299.428 460.348 317.025 455.935 324.156C452.86 329.124 447.263 330.646 441.134 328.183C433.802 325.236 432.714 304.58 439.464 296.508C440.563 295.195 444.657 294.392 448.156 294.402V294.402ZM303.077 294.473C309.693 294.473 313.778 299.097 314.655 307.579C315.342 314.232 314.371 322.492 312.927 322.254C312.475 322.181 311.275 321.897 310.258 321.624C308.759 321.222 308.428 319.415 308.51 312.054C308.619 302.153 307.282 299.126 302.789 299.126C298.405 299.126 296.965 302.188 296.965 311.518C296.965 319.605 296.825 320.063 294.344 320.063C291.882 320.063 291.724 319.582 291.724 312.094C291.724 298.407 294.259 294.473 303.077 294.473V294.473ZM332.625 294.473C334.66 294.473 334.817 295.561 334.817 309.595V324.716H338.311C340.641 324.716 341.805 325.297 341.805 326.461C341.805 327.848 340.197 328.186 333.945 328.113C329.621 328.063 325.427 327.757 324.626 327.435C321.924 326.346 323.147 324.716 326.665 324.716H330.159V314.248V303.779H326.859C325.044 303.779 323.245 303.466 322.862 303.083C321.387 301.61 323.555 299.126 326.316 299.126C328.232 299.126 329.419 298.339 329.822 296.8C330.16 295.512 331.411 294.473 332.625 294.473ZM390.422 294.473C391.526 294.473 391.888 298.212 391.888 309.595V324.716H395.382C397.712 324.716 398.876 325.297 398.876 326.461C398.876 327.866 397.065 328.206 389.559 328.206C382.053 328.206 380.242 327.866 380.242 326.461C380.242 325.297 381.407 324.716 383.736 324.716H387.23V314.248V303.779H383.65C380.87 303.779 380.157 303.324 380.459 301.743C380.672 300.623 382.041 299.538 383.5 299.33C384.96 299.122 386.783 297.944 387.554 296.712C388.324 295.48 389.615 294.473 390.422 294.473ZM418.812 294.473C420.849 294.473 421.006 295.564 421.006 309.727V324.98L424.5 324.468C427.295 324.058 427.994 324.381 427.994 326.081C427.994 327.961 426.924 328.206 418.677 328.206C411.171 328.206 409.358 327.866 409.358 326.461C409.358 325.297 410.523 324.716 412.853 324.716H416.347V314.325V303.933L413.144 303.565C409.178 303.109 408.836 299.863 412.696 299.318C414.216 299.103 415.714 297.93 416.036 296.701C416.358 295.476 417.605 294.473 418.812 294.473V294.473ZM503.795 294.473C511.091 294.473 513.533 296.794 515.331 305.443C516.653 311.802 516.373 315.626 514.039 323.169C512.498 328.151 507.262 330.097 499.51 328.571C498.021 328.278 496.037 326.031 494.43 322.818C490.983 315.923 491.41 305.229 495.39 298.798C497.892 294.755 498.44 294.473 503.795 294.473ZM533.501 294.557C534.343 294.519 535.052 295.167 535.394 296.509C535.678 297.629 536.013 303.386 536.137 309.304L536.362 320.063H533.426C530.569 320.063 530.488 319.844 530.488 311.999C530.488 304.065 530.438 303.927 527.285 303.565C523.368 303.115 522.956 299.867 526.748 299.33C528.213 299.122 530.043 297.944 530.813 296.712C531.686 295.316 532.66 294.594 533.501 294.557V294.557ZM363.672 294.64C366.12 294.677 367.429 295.021 367.429 295.646C367.429 296.356 368.035 296.563 368.774 296.107C369.56 295.622 369.804 295.784 369.363 296.498C368.947 297.17 369.402 299.214 370.341 301.04C372.892 305.924 372.607 317.978 369.812 323.45C366.948 329.056 361.463 330.802 354.946 328.183C350.816 326.523 348.555 319.572 349.016 309.944C349.576 298.215 351.935 295.178 360.851 294.705C361.914 294.649 362.856 294.627 363.672 294.64ZM359.947 299.206C357.613 299.266 355.588 301.342 354.558 305.162C351.179 317.694 358.063 329.512 364.564 322.339C366.206 320.526 366.733 318.047 366.782 311.903C366.837 305.146 366.441 303.438 364.333 301.332C362.859 299.859 361.347 299.17 359.947 299.206V299.206ZM446.875 299.218C445.511 299.236 444.126 299.942 442.939 301.406C440.031 304.992 439.891 319.452 442.733 322.589C445.199 325.31 448.072 325.295 450.561 322.549C453.197 319.64 454.257 309.816 452.506 304.519C451.364 301.063 449.149 299.186 446.875 299.217V299.218ZM503.957 299.292C502.376 299.336 500.816 300.105 499.735 301.645C497.109 305.39 497.155 319.667 499.805 322.589C503.033 326.151 507.064 325.316 509.002 320.682C511.071 315.737 511.166 306.538 509.188 302.616C508.059 300.377 505.992 299.235 503.958 299.292H503.957ZM277.748 313.842V319.279C277.748 324.303 277.969 324.717 280.659 324.717C282.471 324.717 283.571 325.375 283.571 326.461C283.571 327.857 281.823 328.206 274.835 328.206C267.847 328.206 266.1 327.857 266.1 326.461C266.1 325.375 267.2 324.717 269.012 324.717C271.283 324.717 271.923 324.121 271.923 322.011C271.923 320.523 273.233 318.077 274.835 316.574L277.748 313.842V313.842ZM540.909 323.762C541.449 323.753 541.782 323.781 541.853 323.851C542.136 324.134 542.877 327.956 543.5 332.346L544.634 340.327L533.218 376.347C519.033 421.101 515.039 435.36 515.819 438.461C516.153 439.795 519.089 443.51 522.341 446.718C525.633 449.964 528.257 453.532 528.261 454.764C528.261 457.819 521.733 479.942 520.223 481.969C519.547 482.876 507.473 487.793 493.392 492.896C479.31 497.999 466.564 503.06 465.066 504.142C462.406 506.064 457.406 518.844 455.636 528.245C454.894 534.887 456.125 534.414 458.192 534.302C458.192 534.302 461.206 534.474 461.675 532.597C461.822 532.087 464.236 528.647 466.185 523.818C468.138 518.98 470.761 514.375 472.028 513.56C475.411 511.384 497.828 503.064 499.135 503.5C499.752 503.705 497.117 507.472 493.283 511.87C489.448 516.269 483.186 523.562 479.368 528.076L472.427 536.285L473.152 545.212L473.877 554.14L468.726 565.402C465.893 571.596 462.873 577.499 462.016 578.52C460.414 580.426 445.409 585.913 441.795 585.913C440.304 585.913 439.976 585.413 440.544 584.008C444.377 574.528 445.578 566.747 446.547 545.11C447.635 520.804 449.376 499.093 450.466 496.257C450.831 495.31 458.939 490.59 468.487 485.767C488.024 475.898 486.407 477.672 493.304 458.555C496.574 449.49 497.568 443.376 495.772 443.376C494.926 443.376 484.676 470.524 484.676 472.763C484.676 473.35 476.321 478.007 466.11 483.113C455.898 488.219 447.325 492.996 447.057 493.728C446.197 496.084 443.121 532.57 442.175 551.638C441.274 569.803 439.308 580.692 436.468 583.252C434.988 584.587 417.127 591.401 415.439 591.275C414.87 591.233 410.069 589.554 404.77 587.545C399.47 585.537 394.932 583.69 394.684 583.443C394.436 583.196 393.219 579.123 391.978 574.394C390.326 568.094 389.601 561.287 389.263 548.925C389.01 539.645 387.943 523.24 386.895 512.468L384.99 492.882L372.665 486.554C358.892 479.483 362.169 483.149 343.635 454.096C338.469 445.999 337.064 444.416 336.753 446.349C336.339 448.923 351.707 474.94 357.071 480.747C358.645 482.451 364.703 486.246 370.534 489.18C378.3 493.087 381.289 495.169 381.709 496.962C383.112 502.951 386.4 550.166 385.863 556.612C385.386 562.335 385.825 565.743 388.125 573.682C389.696 579.138 390.982 584.098 390.982 584.704C390.982 586.314 381.19 583.151 378.867 580.791C377.81 579.718 374.72 573.906 372 567.877C367.731 558.41 367.194 556.436 368.066 553.398C368.622 551.464 368.765 549.053 368.385 548.04C368.004 547.027 359.368 536.65 349.192 524.98C336.328 510.23 331.223 503.659 332.445 503.423C333.412 503.236 340.223 505.449 347.581 508.34C362.164 514.068 361.139 513.107 367.069 526.612C369.738 532.692 369.955 531.683 371.434 532.426C372.925 533.176 373.483 532.764 375.073 532.403C377.297 531.899 377.065 531.533 376.381 528.685C373.836 518.087 369.808 506.999 367.759 504.957C366.348 503.55 356.17 499.336 342.749 494.6C330.302 490.208 319.846 486.174 319.513 485.636C318.195 483.506 311.45 459.171 311.446 456.529C311.446 454.98 312.719 450.204 314.281 445.916L317.122 438.119L313.705 425.787C311.825 419.004 305.129 397.145 298.825 377.212C287.598 341.713 287.377 340.817 288.095 333.547C289.17 322.648 288.827 322.877 301.044 324.952C311.022 326.648 312.569 327.327 339.447 341.797C366.306 356.258 367.492 357.031 368.379 360.684C370.28 368.516 368.956 368.302 415.343 368.284C446.142 368.269 457.578 367.92 459.533 366.924C461.101 366.125 462.769 363.779 463.647 361.14C465.073 356.852 465.797 356.335 484.977 345.924C519.471 327.202 521.505 326.285 531.898 324.741C535.792 324.162 539.286 323.791 540.909 323.761V323.762ZM535.105 330.559C534.391 330.519 533.025 331.107 531.238 332.419C524.567 337.315 497.204 359.853 495.299 362.02C492.369 365.355 492.932 368.871 496.893 371.968L500.395 374.705L493.625 381.746C489.902 385.618 486.856 389.622 486.856 390.645C486.856 393.029 488.125 392.108 498.022 382.54C502.067 378.631 505.376 374.603 505.376 373.589C505.376 372.389 503.764 371.209 500.747 370.205C497.982 369.285 496.116 367.991 496.116 366.994C496.116 366.076 504.205 358.72 514.092 350.648C523.979 342.575 533.005 334.918 534.15 333.632C535.867 331.703 536.024 330.612 535.105 330.559V330.559ZM296.952 331.358C296.516 331.413 296.483 331.869 296.799 332.69C297.33 334.073 319.366 352.579 333.11 363.184C335.279 364.857 337.208 366.666 337.397 367.203C337.583 367.74 335.624 368.72 333.039 369.382C326.159 371.142 325.614 371.382 325.614 372.654C325.614 374.231 342.408 391.15 343.973 391.15C344.662 391.15 345.224 390.618 345.224 389.968C345.224 389.317 342.284 385.726 338.688 381.987C335.093 378.248 332.151 374.876 332.151 374.493C332.151 374.11 333.622 373.037 335.42 372.109C338.035 370.758 338.688 369.714 338.688 366.883C338.688 363.615 337.219 362.147 319.539 347.746C305.211 336.075 298.51 331.16 296.952 331.358V331.358ZM292.807 333.483C290.752 333.483 292.184 338.037 302.303 363.663C310.117 383.45 313.424 390.59 315.365 391.86C318.353 393.816 326.42 395.172 336.236 395.367C341.623 395.475 343.046 395.162 343.046 393.871C343.046 392.689 341.769 392.215 338.415 392.156C335.869 392.111 329.872 391.496 325.089 390.79L316.392 389.505L307.954 368.295C296.16 338.65 293.912 333.483 292.807 333.483V333.483ZM539.152 333.686C539.063 333.696 538.972 333.715 538.878 333.746C537.808 334.095 523.204 368.804 516.709 386.438C515.538 389.617 515.278 389.713 504.21 391.053C492.63 392.455 488.484 393.734 489.613 395.557C490.385 396.804 489.319 396.848 502.964 395.024C509.127 394.201 515.26 392.812 516.594 391.939C518.321 390.809 522.078 382.564 529.654 363.278C535.503 348.386 540.278 335.55 540.264 334.752C540.264 334.054 539.776 333.62 539.152 333.686V333.686ZM561.612 349.142C564.054 349.021 566.501 350.132 569.117 352.466C572.815 355.766 572.841 355.868 572.841 366.923C572.841 373.731 572.311 378.695 571.475 379.701C570.724 380.605 570.497 381.733 570.972 382.207C571.447 382.682 571.309 382.915 570.669 382.726C570.028 382.537 568.321 383.038 566.873 383.839C564.135 385.355 554.685 385.402 555.618 383.896C555.909 383.423 554.961 382.205 553.509 381.19C551.139 379.533 550.829 378.217 550.466 368.311L550.062 357.278L554.135 353.21C556.732 350.617 559.168 349.264 561.61 349.142L561.612 349.142ZM246.489 349.371C247.783 349.379 249.174 350.021 251.098 351.155C255.6 353.811 257.24 360.017 256.404 371.241C255.825 379.02 255.401 380.245 252.483 382.576C249.478 384.978 242.955 386.126 241.36 384.533C240.991 384.165 239.725 383.723 238.545 383.55C237.366 383.378 236.357 382.763 236.303 382.184C236.249 381.605 235.594 379.657 234.847 377.856C234.1 376.055 233.488 371.662 233.488 368.094C233.488 362.073 233.872 361.16 238.819 355.375C242.446 351.135 244.333 349.365 246.489 349.371ZM418.912 350.186C420.409 350.176 421.006 352.461 421.006 357.285C421.006 363.489 420.746 364.264 418.677 364.264C417.151 364.264 416.347 363.489 416.347 362.015C416.347 360.428 415.407 359.658 413.154 359.398C409.702 359 407.76 354.959 411.021 354.959C412.029 354.959 413.902 353.913 415.183 352.633C416.793 351.025 418.015 350.192 418.912 350.186V350.186ZM275.677 350.306C277.55 350.306 277.748 351.688 277.748 364.846V379.386H280.659C282.795 379.386 283.571 380.006 283.571 381.712C283.571 383.832 282.794 384.039 274.835 384.039C266.876 384.039 266.1 383.832 266.1 381.712C266.1 380.006 266.877 379.386 269.012 379.386C271.889 379.386 271.923 379.27 271.923 369.499C271.923 359.729 271.885 359.612 269.012 359.612C266.877 359.612 266.1 358.991 266.1 357.285C266.1 355.986 266.877 354.959 267.859 354.959C268.826 354.959 270.514 353.913 271.611 352.633C272.708 351.354 274.538 350.306 275.677 350.306V350.306ZM390.264 350.306C391.471 350.306 391.887 352.095 391.887 357.285C391.887 363.405 391.611 364.264 389.638 364.264C388.193 364.264 387.257 363.329 387.018 361.647H387.02C386.732 359.618 385.929 359.06 383.445 359.162C378.75 359.354 379.053 355.404 383.813 354.36C385.778 353.929 387.669 352.841 388.015 351.941C388.361 351.042 389.372 350.306 390.265 350.306H390.264ZM591.031 350.306C594.107 350.306 594.626 353.058 594.265 367.464L593.965 379.386H597.169C599.595 379.386 600.371 379.95 600.371 381.712C600.371 383.854 599.594 384.039 590.58 384.039C581.362 384.039 580.825 383.903 581.399 381.712C581.822 380.095 582.988 379.386 585.223 379.386H588.437L588.369 369.556C588.304 359.896 588.25 359.72 585.321 359.378C580.884 358.861 580.775 355.356 585.165 354.392C587.123 353.963 588.725 352.867 588.725 351.959C588.725 351.05 589.763 350.306 591.032 350.306H591.031ZM447.413 350.505C448.596 350.523 448.959 352.631 448.959 357.285C448.959 363.489 448.699 364.264 446.63 364.264C445.104 364.264 444.3 363.489 444.3 362.015C444.3 360.428 443.361 359.658 441.108 359.398C437.206 358.948 435.811 354.959 439.556 354.959C440.884 354.959 443.018 353.913 444.3 352.633C445.698 351.237 446.703 350.495 447.413 350.505V350.505ZM245.553 354.959C240.745 354.959 239.311 357.764 239.311 367.173C239.311 376.582 240.745 379.386 245.553 379.386C248.685 379.386 249.671 378.834 250.225 376.769C251.133 373.388 251.133 360.958 250.225 357.576C249.671 355.511 248.685 354.959 245.553 354.959ZM561.935 354.959C557.975 354.959 557.5 355.298 556.84 358.594C555.712 364.226 555.981 374.64 557.318 377.136C558.14 378.671 559.76 379.386 562.414 379.386C565.838 379.386 566.39 378.952 567.031 375.752C567.431 373.753 567.759 369.892 567.759 367.173C567.759 364.454 567.432 360.593 567.031 358.594C566.371 355.298 565.895 354.959 561.935 354.959V354.959ZM292.093 372.475C292.102 372.475 292.111 372.483 292.121 372.491C293.434 374.038 294.946 380.55 293.992 380.55C293.385 380.55 292.853 380.419 292.81 380.259C292.395 378.723 291.836 372.517 292.094 372.475L292.093 372.475ZM220.301 379.042C220.894 379.022 221.583 379.068 222.406 379.163C225.477 379.521 226.5 380.191 226.5 381.84C226.5 383.705 225.611 384.039 220.65 384.039C214.812 384.039 214.804 384.031 216.556 381.363C217.614 379.749 218.524 379.102 220.301 379.042V379.042ZM542.146 379.693C542.779 379.755 543.3 380.375 543.3 381.616C543.3 383.045 542.548 384.039 541.468 384.039C540.383 384.039 539.788 383.248 540.011 382.1C540.33 380.458 541.331 379.614 542.146 379.693V379.693ZM616.886 404.604C617.54 404.614 618.567 404.787 619.866 405.122C625.767 406.641 629.074 408.371 629.223 410.014C629.289 410.762 629.945 413.73 630.677 416.609C632.466 423.646 631.288 431.261 627.679 435.987C625.041 439.44 624.089 439.873 619.127 439.873C615.234 439.873 612.97 439.24 611.65 437.783C608.187 433.962 606.739 424.333 608.41 416.243C610.082 408.143 611.301 406.141 614.559 406.141C615.799 406.141 616.515 405.657 616.15 405.067C615.953 404.749 616.233 404.595 616.886 404.604ZM244.506 405.252C245.64 405.225 246.864 405.324 248.179 405.554C254.76 406.7 256.151 409.59 256.341 422.509C256.5 433.362 256.343 434.178 253.575 436.943C251.265 439.25 249.468 439.873 245.12 439.873C241.65 439.873 239.062 439.229 238.157 438.141H238.159C237.367 437.188 236.366 436.626 235.935 436.892C234.974 437.485 234.712 435.878 233.931 424.625C233.047 411.891 236.568 405.439 244.506 405.252H244.506ZM215.519 405.281C216.29 405.31 217.173 405.41 218.22 405.566C221.053 405.991 224.112 407.079 225.019 407.984C225.925 408.89 226.303 409.63 225.858 409.63C225.413 409.63 225.672 410.379 226.433 411.294C228.473 413.749 229.275 424.635 227.813 430.036C225.829 437.364 222.806 439.873 215.956 439.873C210.726 439.873 209.947 439.522 207.969 436.273C202.945 428.023 204.092 411.848 210.031 407.182C211.886 405.725 213.207 405.191 215.519 405.281V405.281ZM562.308 405.372C566.293 405.44 569.926 407.591 571.423 411.134C572.302 413.214 572.986 418.833 572.969 423.836C572.927 435.852 570.689 439.138 562.212 439.639C556.735 439.962 556.111 439.716 553.388 436.149C550.936 432.939 550.416 430.884 550.202 423.57C550.024 417.4 550.497 413.765 551.819 411.214C552.848 409.226 553.317 407.187 552.862 406.683C552.407 406.179 552.63 406.107 553.358 406.522C554.085 406.937 556.296 406.712 558.272 406.024C559.612 405.558 560.98 405.35 562.308 405.372V405.372ZM276.533 405.616C276.746 405.634 276.912 405.692 277.013 405.793C277.417 406.197 277.749 412.984 277.749 420.874V435.22H280.661C282.796 435.22 283.572 435.841 283.572 437.547C283.572 439.667 282.796 439.873 274.837 439.873C266.879 439.873 266.102 439.667 266.102 437.547H266.1C266.1 435.841 266.876 435.22 269.011 435.22C271.902 435.22 271.923 435.142 271.923 424.751V414.282H268.466C265.911 414.282 265.179 413.839 265.661 412.583C266.022 411.648 267.323 410.563 268.554 410.173C269.785 409.782 270.484 408.964 270.107 408.354C269.731 407.745 269.854 407.371 270.382 407.522C270.91 407.674 272.453 407.181 273.81 406.428C274.827 405.863 275.893 405.561 276.533 405.616H276.533ZM534.165 406.141C536.269 406.141 536.411 407.016 536.292 419.226C536.222 426.424 536.195 432.967 536.23 433.767C536.268 434.592 537.806 435.22 539.79 435.22C542.507 435.22 543.284 435.738 543.284 437.547C543.284 439.675 542.508 439.873 534.161 439.873C529.143 439.873 524.687 439.525 524.26 439.098H524.278C522.345 437.168 523.709 435.22 526.995 435.22H530.489V423.298C530.489 409.053 531.132 406.141 534.165 406.141H534.165ZM303.032 406.239L304.366 410.686C305.099 413.133 305.701 419.619 305.701 425.1V435.066L308.893 435.434C310.819 435.656 312.24 436.61 312.473 437.838C312.815 439.64 311.782 439.873 303.456 439.873C294.829 439.873 294.053 439.681 294.053 437.547C294.053 435.738 294.83 435.22 297.547 435.22H301.041V424.751V414.282H297.672C295.752 414.282 294.014 413.533 293.632 412.538C293.186 411.378 293.679 410.793 295.098 410.793C296.272 410.793 298.537 409.768 300.132 408.515L303.032 406.239V406.239ZM591.554 406.349C591.714 406.341 591.864 406.349 591.999 406.375C594.13 406.785 594.251 407.715 594.438 425.042C594.547 435.094 594.581 435.22 597.459 435.22C599.594 435.22 600.37 435.841 600.37 437.547C600.37 439.68 599.594 439.873 591.053 439.873C582.512 439.873 581.736 439.68 581.736 437.547C581.736 435.756 582.512 435.22 585.113 435.22H588.491V426.289C588.491 415.477 588.096 414.283 584.522 414.283C582.821 414.283 581.736 413.603 581.736 412.539C581.736 411.579 582.521 410.793 583.482 410.793C584.443 410.793 586.31 409.714 587.631 408.395C588.786 407.241 590.435 406.402 591.554 406.349V406.349ZM216.272 409.724C214.819 409.654 213.451 410.26 212.376 411.553C210.19 414.183 210.19 430.658 212.376 433.294C214.42 435.758 218.153 435.759 220.878 433.294H220.876C224.091 430.388 223.949 415.223 220.678 411.955C219.262 410.541 217.724 409.794 216.271 409.723L216.272 409.724ZM618.542 409.824C615.359 409.875 613.871 413.182 613.394 420.677C612.767 430.513 614.582 435.22 619.005 435.22C620.77 435.22 622.825 434.487 623.57 433.591C624.436 432.548 624.801 428.262 624.585 421.692C624.255 411.647 624.178 411.4 621.026 410.296C620.103 409.973 619.277 409.812 618.542 409.824V409.824ZM245.785 409.88C243.854 409.792 241.903 410.928 240.74 413.12C238.696 416.973 239.463 432.701 241.766 434.158C244.539 435.911 248.493 435.324 249.754 432.97C251.772 429.204 251.276 413.601 249.067 411.395C248.096 410.426 246.944 409.933 245.785 409.88ZM561.68 409.88C559.548 409.932 557.429 411.235 556.85 413.393C555.704 417.661 556.012 430.531 557.318 432.967C558.097 434.421 559.755 435.216 562.006 435.216C564.728 435.216 565.757 434.518 566.723 432.017C568.539 427.317 567.529 413.551 565.199 411.223C564.242 410.268 562.959 409.849 561.68 409.88V409.88ZM639.847 410.789C640.419 410.789 641.188 411.575 641.557 412.534C642.238 414.307 640.997 414.917 639.583 413.504C638.47 412.392 638.625 410.789 639.847 410.789V410.789ZM190.998 423.129C191.066 423.089 191.144 423.325 191.228 423.875C191.496 425.634 191.496 428.514 191.228 430.273C190.96 432.032 190.743 430.593 190.743 427.074C190.743 424.655 190.846 423.219 190.998 423.129ZM194.471 435.216C196.606 435.216 197.382 435.837 197.382 437.543C197.382 439.813 194.073 440.83 192.335 439.094C190.567 437.328 191.73 435.216 194.471 435.216ZM640.04 435.224C640.29 435.212 640.58 435.263 640.906 435.387C641.501 435.614 641.59 436.846 641.105 438.126C640.281 440.295 640.163 440.312 639.369 438.367C638.623 436.538 638.956 435.277 640.04 435.224V435.224ZM340.827 441.199C339.65 441.199 338.688 441.635 338.688 442.167C338.688 443.102 353.521 449.649 365.989 454.215C369.32 455.436 372.826 457.045 373.779 457.793C374.732 458.541 379.216 467.476 383.743 477.65L391.975 496.147L392.661 526.595C393.038 543.342 393.601 557.452 393.91 557.951C394.22 558.45 395.035 558.613 395.723 558.314C396.411 558.014 400.805 556.268 405.488 554.432C410.17 552.596 414.899 551.093 415.997 551.093C417.096 551.093 421.598 552.56 426.005 554.354C437.577 559.063 437.829 558.987 437.834 550.821C437.834 547.081 438.582 532.446 439.49 518.3L441.141 492.581L448.835 475.866C453.066 466.673 457.101 458.606 457.801 457.939C458.501 457.272 466.263 453.928 475.05 450.511C483.836 447.093 491.926 443.615 493.026 442.782C494.896 441.367 494.837 441.266 492.123 441.234C488.356 441.189 461.155 451.688 456.855 454.847C454.399 456.651 451.514 461.723 445.66 474.535C436.594 494.379 436.234 496.288 435.032 530.773C434.481 546.594 433.979 551.385 432.828 551.826C432.009 552.14 428.291 551.369 424.567 550.113C415.969 547.213 414.583 547.245 405.786 550.552C400.395 552.579 398.419 552.927 398.059 551.912C397.792 551.163 397.134 538.064 396.593 522.804L395.61 495.058L390.698 484.177C380.004 460.489 377.924 456.492 375.441 454.868C371.644 452.383 343.323 441.199 340.827 441.199V441.199ZM274.141 460.027C275.624 460.067 277.168 460.489 278.744 461.304C280.667 462.297 282.578 464.17 282.989 465.465C283.401 466.761 284.093 467.602 284.528 467.334C284.962 467.067 285.487 470.938 285.694 475.936C286.084 485.362 284.379 491.02 280.188 494.214C277.926 495.938 270.932 496.073 268.138 494.448C264.417 492.283 262.606 486.899 262.606 478.003C262.606 470.859 263.07 468.809 265.493 465.247C267.902 461.707 270.877 459.94 274.141 460.027V460.027ZM590.796 460.228C594.408 460.342 597.929 462.294 599.703 466.029C604.312 475.728 602.309 491.592 596.121 494.408C591.446 496.536 586.546 495.961 583.511 492.93C577.918 487.344 576.799 473.137 581.347 465.448C583.483 461.837 587.185 460.114 590.796 460.228V460.228ZM244.979 460.317C247.862 460.25 250.839 461.399 253.289 463.811C256.012 466.492 256.201 467.436 256.201 478.394C256.201 490.015 256.162 490.131 252.706 492.9C248.537 496.232 242.218 496.562 238.498 493.643C234.876 490.8 233.488 486.27 233.488 477.287C233.488 470.858 234.006 468.729 236.442 465.149C238.567 462.026 241.713 460.392 244.979 460.317V460.317ZM217.806 460.808C219.162 460.808 219.512 462.717 219.512 470.113C219.512 475.231 219.38 479.403 219.221 479.383C219.061 479.363 218.013 478.086 216.892 476.547C215.771 475.007 214.853 473.054 214.853 472.207C214.853 471.359 213.708 470.149 212.308 469.518C208.889 467.976 208.216 465.461 211.221 465.461C212.533 465.461 214.167 464.414 214.853 463.134C215.538 461.855 216.868 460.808 217.806 460.808ZM303.994 460.808C305.405 460.808 305.701 463.426 305.701 475.93V491.052H309.195C311.524 491.052 312.689 491.633 312.689 492.796C312.689 494.202 310.876 494.542 303.37 494.542C295.865 494.542 294.053 494.202 294.053 492.796C294.053 491.633 295.218 491.052 297.547 491.052H301.041V480.583V470.113H297.547C294.83 470.113 294.053 469.597 294.053 467.787C294.053 466.09 294.829 465.461 296.924 465.461C298.602 465.461 300.312 464.495 301.041 463.134C301.727 461.855 303.055 460.808 303.994 460.808ZM536.622 460.916C537.717 460.881 539.118 461.836 540.809 463.779C546.647 470.483 546.267 488.553 540.19 493.327C536.574 496.168 529.877 496.372 526.123 493.757C522.906 491.516 522.797 489.725 525.766 487.874C527.679 486.681 528.135 486.804 528.731 488.678C529.916 492.407 536.047 491.456 538.251 487.201C541.024 481.845 539.948 469.36 536.489 466.754C534.761 465.452 534.132 464.11 534.637 462.796C535.108 461.57 535.774 460.943 536.625 460.916H536.622ZM619.44 460.973C619.579 460.981 619.726 460.994 619.88 461.023C623.065 461.626 622.946 466.727 619.654 470.695C617.428 473.379 616.75 473.715 616.718 472.149C616.679 470.686 615.721 470.113 613.284 470.113C608.571 470.113 609.218 466.462 614.158 465.184C616.29 464.632 617.84 463.475 617.84 462.434C617.84 461.487 618.461 460.939 619.439 460.972L619.44 460.973ZM562.547 461.025C562.683 461.017 562.821 461.033 562.96 461.057C564.562 461.363 564.897 463.662 565.174 476.234C565.5 491.027 565.503 491.052 568.307 491.052C571.295 491.052 573.351 493.066 571.676 494.352C571.123 494.776 566.609 494.969 561.644 494.783C554.668 494.52 552.618 494.058 552.618 492.748C552.618 491.639 553.828 491.052 556.112 491.052H559.606V480.583V470.113H556.112C553.394 470.113 552.618 469.596 552.618 467.787C552.618 465.962 553.394 465.461 556.221 465.461C558.873 465.461 559.988 464.832 560.448 463.078C560.77 461.851 561.601 461.06 562.547 461.024V461.025ZM590.471 465.461C589.755 465.461 588.172 466.189 586.953 467.079C583.779 469.397 582.954 483.95 585.753 488.217C588.278 492.065 593.248 491.73 595.44 487.562C597.802 483.07 596.816 469.144 593.988 467.079C592.77 466.189 591.186 465.461 590.471 465.461ZM245.344 465.479C240.662 465.521 239.894 467.321 239.894 478.256C239.894 486.372 240.298 489.065 241.642 489.913C244.529 491.736 248.471 491.196 249.754 488.802C250.417 487.564 250.959 482.629 250.959 477.834C250.959 468.729 249.465 465.441 245.344 465.479V465.479ZM273.842 465.524C272.897 465.563 271.962 465.842 271.123 466.375C267.286 468.812 266.091 480.178 268.952 487.018C270.853 491.561 274.346 492.38 277.946 489.126H277.948C280.833 486.519 281.058 470.096 278.246 467.289C277.02 466.064 275.418 465.459 273.842 465.524H273.842ZM273.969 515.977C278.074 515.9 282.305 518.804 284.148 523.21C286.235 528.198 286.358 539.17 284.381 543.796C282.996 547.034 282.924 547.056 280.937 544.864H280.935C279.82 543.633 279.215 542.316 279.593 541.939C279.97 541.562 280.254 537.821 280.221 533.625C280.117 520.059 273.792 515.615 268.942 525.702C266.595 530.582 266.499 530.642 264.49 528.425C262.62 526.362 262.594 525.857 264.191 522.77C266.35 518.601 268.079 517.185 272.224 516.196C272.798 516.059 273.382 515.988 273.968 515.977H273.969ZM331.78 516.137C333.424 516.224 334.705 517.457 338.039 521.026L343.176 526.53L342.604 536.38C342.089 545.238 341.721 546.496 338.942 548.883C334.94 552.322 327.489 552.525 324.699 549.271C323.63 548.024 322.412 547.216 321.992 547.475C321.141 548.001 321.189 548.281 320.144 536.872C319.359 528.298 320.716 521.486 323.7 519.012C324.566 518.294 326.99 517.216 329.087 516.616C330.211 516.294 331.033 516.097 331.78 516.137V516.137ZM533.836 516.186C537.678 516.194 540.905 518.227 542.711 522.027C545.73 528.381 545.518 540.838 542.302 546.035C539.446 550.651 537.823 551.538 532.243 551.538C529.363 551.538 527.609 550.639 525.421 548.043C522.022 544.008 520.498 536.192 521.721 529.073C522.182 526.394 522.639 523.069 522.738 521.682C522.835 520.296 523.18 519.2 523.5 519.245C523.818 519.291 525.978 518.485 528.293 517.454C530.217 516.597 532.09 516.183 533.836 516.186V516.186ZM505.099 516.796C505.255 516.788 505.406 516.796 505.547 516.828C507.404 517.185 507.581 518.639 507.332 531.473L507.057 545.722H510.701C513.814 545.722 514.291 546.103 513.973 548.339C513.628 550.769 512.995 550.964 505.151 551.048C500.503 551.097 496.44 550.879 496.124 550.562C495.805 550.246 495.547 549.028 495.547 547.855C495.547 546.356 496.412 545.722 498.459 545.722C501.336 545.722 501.37 545.606 501.37 535.835C501.37 526.064 501.332 525.948 498.459 525.948C496.323 525.948 495.547 525.327 495.547 523.621C495.547 522.093 496.324 521.295 497.811 521.295C499.055 521.295 500.841 520.201 501.779 518.863C502.6 517.692 504.002 516.844 505.099 516.797V516.796ZM563.08 516.844C564.723 516.961 565.429 519.824 565.429 525.708C565.429 532.796 565.091 533.999 562.404 536.505C559.581 539.136 559.395 539.17 559.626 536.999C559.762 535.719 559.813 532.708 559.739 530.309C559.615 526.268 559.348 525.948 556.111 525.948C553.393 525.948 552.617 525.43 552.617 523.621C552.617 522.07 553.393 521.295 554.946 521.295C556.227 521.295 558.363 520.208 559.694 518.879C561.102 517.473 562.219 516.782 563.079 516.844H563.08ZM303.902 516.875C305.49 516.875 305.701 520.675 305.701 531.182V545.722H309.058C311.437 545.722 312.595 546.402 313.026 548.048C313.862 551.241 313.146 551.473 302.969 551.316C294.431 551.185 294.053 551.063 294.053 548.451C294.053 546.195 294.658 545.722 297.547 545.722H301.041V535.835V525.949H297.547C294.83 525.949 294.053 525.431 294.053 523.621C294.053 522.151 294.829 521.295 296.163 521.295C297.323 521.295 299.398 520.249 300.774 518.969C302.175 517.666 303.18 516.877 303.902 516.875ZM331.51 520.272C330.396 520.362 329.197 521.093 327.829 522.459C325.896 524.389 325.504 526.322 325.519 533.8C325.557 543.627 326.066 545.207 329.577 545.939C333.544 546.766 335.974 545.573 336.817 542.385C338.303 536.758 337.619 526.258 335.56 523.12C334.235 521.1 332.943 520.156 331.51 520.272V520.272ZM533.622 520.482C532.866 520.457 532.05 520.638 531.182 521.033C527.703 522.616 526.466 527.719 527.256 537.227C527.814 543.954 530.421 547.607 533.753 546.33C534.625 545.996 535.755 545.722 536.265 545.722C538.344 545.722 540.065 538.45 539.577 531.722C539.059 524.563 536.897 520.59 533.622 520.482V520.482ZM355.996 545.444C358.293 545.346 359.539 546.023 361.254 548.092L363.747 551.097L357.435 551.262C351.546 551.415 351.124 551.243 351.124 548.702C351.124 546.489 351.841 545.893 354.943 545.532C355.318 545.488 355.668 545.458 355.996 545.444ZM482.297 545.857C482.516 545.868 482.759 545.895 483.027 545.933C484.747 546.177 485.647 547.104 485.647 548.631C485.647 550.157 484.747 551.085 483.027 551.329C480.877 551.634 480.406 551.149 480.406 548.631C480.406 546.427 480.767 545.781 482.297 545.858V545.857ZM415.663 554.376C413.942 554.4 396.423 561.546 395.283 562.687C394.288 563.684 396.483 578.711 397.819 580.045C398.268 580.493 401.693 582.218 405.431 583.879C413.748 587.574 418.458 587.399 427.424 583.062C432.068 580.815 434.109 579.156 434.625 577.207C437.357 566.9 437.84 563.725 436.825 562.712C435.563 561.451 417.532 554.349 415.663 554.376V554.376ZM415.589 558.86C418.003 558.85 420.493 559.569 424.443 561.009C432.309 563.877 433.405 565.179 432.371 570.413C431.046 577.111 430.338 577.953 423.521 580.905C415.698 584.294 415.894 584.29 408.646 581.165C401.269 577.985 400.097 576.664 399.234 570.574C398.418 564.812 398.663 564.52 407.197 561.077C410.84 559.607 413.176 558.869 415.589 558.86V558.86ZM332.678 572.416C334.8 572.456 336.841 572.854 338.336 573.653C341.189 575.177 342.955 581.694 342.963 590.728C342.963 598.376 341.879 600.378 339.357 597.343H339.359C338.508 596.319 337.758 592.529 337.691 588.922C337.508 579.147 336.545 577.129 332.061 577.129C327.562 577.129 325.5 578.903 325.5 582.776C325.5 585.558 325.443 585.577 323.171 583.526C320.113 580.762 320.227 578.112 323.536 575.006C325.377 573.278 329.141 572.349 332.678 572.416H332.678ZM361.865 572.477C363.739 572.477 363.935 573.858 363.935 587.017V601.556H366.847C368.982 601.556 369.759 602.177 369.759 603.883C369.759 606.015 368.982 606.209 360.441 606.209C351.9 606.209 351.124 606.015 351.124 603.883C351.124 602.074 351.9 601.556 354.618 601.556H358.112V591.087V580.618H354.618C352.289 580.618 351.124 580.037 351.124 578.874C351.124 577.902 352.16 577.129 353.464 577.129C354.752 577.129 356.703 576.082 357.8 574.803C358.897 573.523 360.726 572.477 361.865 572.477V572.477ZM505.146 572.477C506.939 572.477 507.195 573.696 507.195 582.23C507.195 591.35 507.005 592.107 504.283 593.888L501.37 595.793V588.206C501.37 580.888 501.266 580.618 498.459 580.618C496.647 580.618 495.547 579.96 495.547 578.874C495.547 577.907 496.582 577.129 497.867 577.129C499.143 577.129 500.84 576.082 501.64 574.803C502.441 573.523 504.019 572.477 505.146 572.477V572.477ZM478.025 572.489C480.007 572.591 482.196 573.591 483.952 575.457C486.282 577.935 486.831 579.905 487.195 587.119C487.99 602.829 482.323 608.718 469.599 605.404H469.616C466.542 604.603 464.095 598.887 464.136 592.599C464.175 588.026 464.694 586.637 467.049 584.926L469.923 582.836V590.742C469.962 599.956 470.826 601.846 475.102 601.846C480.105 601.846 480.971 599.98 480.971 589.19C480.971 580.699 480.645 579.029 478.703 577.611C477.455 576.7 475.444 576.268 474.234 576.652C472.312 577.261 472.2 577.042 473.341 574.912C474.267 573.184 476.042 572.387 478.025 572.489H478.025ZM389.559 592.25C391.5 592.25 391.888 593.026 391.888 596.903C391.888 601.298 392.082 601.555 395.382 601.555C398.1 601.555 398.876 602.073 398.876 603.882C398.876 606.015 398.1 606.208 389.559 606.208C381.018 606.208 380.242 606.015 380.242 603.882C380.242 602.073 381.018 601.555 383.736 601.555C387.036 601.555 387.23 601.298 387.23 596.903C387.23 593.026 387.618 592.25 389.559 592.25V592.25ZM446.63 592.25C448.571 592.25 448.959 593.026 448.959 596.903C448.959 601.237 449.185 601.555 452.259 601.555C456.136 601.555 457.186 602.337 456.325 604.578C455.579 606.52 439.066 606.938 437.894 605.045C436.736 603.174 438.39 601.555 441.457 601.555C443.998 601.555 444.299 601.061 444.299 596.903C444.299 593.026 444.689 592.25 446.63 592.25ZM406.493 595.865C407.845 595.906 411.441 597.712 412.527 599.252C414.915 602.64 418.628 602.873 421.679 599.826C423.189 598.318 425.511 596.74 426.838 596.319C428.993 595.636 429.167 595.905 428.478 598.846C427.46 603.183 425.938 604.612 420.898 605.962C417.939 606.755 415.722 606.667 413.327 605.661C411.465 604.879 409.18 602.719 408.249 600.862C407.318 599.005 406.336 597.037 406.065 596.489C405.841 596.034 406.042 595.852 406.493 595.866V595.865ZM390.391 627.095C391.22 627.265 391.888 629.223 391.888 632.381C391.888 635.26 391.496 637.596 391.015 637.573C390.535 637.549 388.632 636.298 386.787 634.791C383.605 632.192 383.554 632.013 385.806 631.299C387.111 630.885 388.473 629.782 388.833 628.847C389.337 627.535 389.893 626.993 390.391 627.095V627.095ZM419.3 627.146C420.695 627.146 421.006 629.48 421.006 639.942C421.006 646.979 420.613 652.695 420.132 652.645C419.652 652.594 418.604 652.289 417.803 651.966C416.851 651.582 416.347 648.798 416.347 643.915V636.452H412.853C410.135 636.452 409.358 635.934 409.358 634.125C409.358 632.428 410.136 631.799 412.23 631.799C413.909 631.799 415.618 630.833 416.347 629.473C417.032 628.193 418.362 627.146 419.3 627.146ZM446.285 627.154C449.254 627.091 452.312 628.064 454.253 630.002C457.676 633.421 457.83 634.823 454.948 636.363C453.19 637.303 452.538 636.983 451.479 634.66C450.568 632.664 449.235 631.799 447.073 631.799C443.134 631.799 440.891 634.743 440.844 639.973C440.805 644.077 438.152 649.247 436.082 649.247C435.478 649.247 434.982 646.97 434.982 644.187C434.982 637.627 436.992 631.731 440.088 629.207C441.721 627.876 443.976 627.202 446.285 627.154Z" fill="black"/>
<ellipse cx="427" cy="426.5" rx="414" ry="413.5" stroke="black" stroke-width="25"/>
</svg>
